HIERARCHY
ROOT Hips
{
	OFFSET -0.001795 -0.223333 0.028219
	CHANNELS 6 Xposition Yposition Zposition Zrotation Yrotation Xrotation 
	JOINT LeftUpLeg
	{
		OFFSET 0.069520 -0.091406 -0.006815
		CHANNELS 3 Zrotation Yrotation Xrotation
		JOINT LeftLeg
		{
			OFFSET 0.034277 -0.375199 -0.004496
			CHANNELS 3 Zrotation Yrotation Xrotation
			JOINT LeftFoot
			{
				OFFSET -0.013596 -0.397961 -0.043693
				CHANNELS 3 Zrotation Yrotation Xrotation
				JOINT LeftToe
				{
					OFFSET 0.026358 -0.055791 0.119288
					CHANNELS 3 Zrotation Yrotation Xrotation
					End Site
					{
						OFFSET 0.000000 0.000000 0.000000
					}
				}
			}
		}
	}
	JOINT RightUpLeg
	{
		OFFSET -0.067670 -0.090522 -0.004320
		CHANNELS 3 Zrotation Yrotation Xrotation
		JOINT RightLeg
		{
			OFFSET -0.038290 -0.382569 -0.008850
			CHANNELS 3 Zrotation Yrotation Xrotation
			JOINT RightFoot
			{
				OFFSET 0.015774 -0.398415 -0.042312
				CHANNELS 3 Zrotation Yrotation Xrotation
				JOINT RightToe
				{
					OFFSET -0.025372 -0.048144 0.123348
					CHANNELS 3 Zrotation Yrotation Xrotation
					End Site
					{
						OFFSET 0.000000 0.000000 0.000000
					}
				}
			}
		}
	}
	JOINT Spine
	{
		OFFSET -0.002533 0.108963 -0.026696
		CHANNELS 3 Zrotation Yrotation Xrotation
		JOINT Spine1
		{
			OFFSET 0.005487 0.135180 0.001092
			CHANNELS 3 Zrotation Yrotation Xrotation
			JOINT Spine2
			{
				OFFSET 0.001457 0.052922 0.025425
				CHANNELS 3 Zrotation Yrotation Xrotation
				JOINT Neck
				{
					OFFSET -0.002778 0.213870 -0.042857
					CHANNELS 3 Zrotation Yrotation Xrotation
					JOINT Head
					{
						OFFSET 0.005152 0.064970 0.051349
						CHANNELS 3 Zrotation Yrotation Xrotation
						End Site
						{
							OFFSET 0.000000 0.000000 0.000000
						}
					}
				}
				JOINT LeftShoulder
				{
					OFFSET 0.078845 0.121749 -0.034090
					CHANNELS 3 Zrotation Yrotation Xrotation
					JOINT LeftArm
					{
						OFFSET 0.090977 0.030469 -0.008868
						CHANNELS 3 Zrotation Yrotation Xrotation
						JOINT LeftForeArm
						{
							OFFSET 0.259612 -0.012772 -0.027456
							CHANNELS 3 Zrotation Yrotation Xrotation
							JOINT LeftHand
							{
								OFFSET 0.249234 0.008986 -0.001171
								CHANNELS 3 Zrotation Yrotation Xrotation
								End Site
								{
									OFFSET 0.000000 0.000000 0.000000
								}
							}
						}
					}
				}
				JOINT RightShoulder
				{
					OFFSET -0.081759 0.118833 -0.038615
					CHANNELS 3 Zrotation Yrotation Xrotation
					JOINT RightArm
					{
						OFFSET -0.096012 0.032551 -0.009143
						CHANNELS 3 Zrotation Yrotation Xrotation
						JOINT RightForeArm
						{
							OFFSET -0.253742 -0.013329 -0.021401
							CHANNELS 3 Zrotation Yrotation Xrotation
							JOINT RightHand
							{
								OFFSET -0.255298 0.007772 -0.005559
								CHANNELS 3 Zrotation Yrotation Xrotation
								End Site
								{
									OFFSET 0.000000 0.000000 0.000000
								}
							}
						}
					}
				}
			}
		}
	}
}
MOTION
Frames: 11
Frame Time: 0.050000
0.055078 0.939681 0.042008 -4.542256 -15.137115 12.666050 8.975758 0.316871 -19.351492 -5.941911 1.687296 14.980015 9.615494 18.579277 11.964264 0.000000 0.000000 0.000000 1.719170 4.452316 -29.679139 -3.549381 2.290068 18.887840 4.884799 1.917060 12.849035 0.000000 0.000000 0.000000 3.172431 -0.878824 14.664791 0.779228 -0.288016 -0.989949 -9.291471 2.099918 -1.666999 8.702290 -3.013412 -22.776398 0.000000 0.000000 0.000000 -5.415868 -32.220153 13.460894 5.623923 -65.554222 -6.577253 35.243812 -35.089459 -9.420368 0.000000 0.000000 0.000000 13.701158 19.596387 7.696378 33.483643 42.807712 8.425764 -43.745772 56.561658 -21.966247 0.000000 0.000000 0.000000 
0.056356 0.941915 0.040968 -4.921871 -14.736149 12.997509 9.247112 0.343902 -19.473891 -5.748614 1.568822 14.439494 9.393473 18.211209 12.399337 0.000000 0.000000 0.000000 1.980557 4.446092 -29.528091 -3.434871 2.117503 17.915561 4.950663 1.383216 13.925548 0.000000 0.000000 0.000000 3.463379 -0.948832 15.003597 0.951597 -0.385597 -2.819128 -8.709540 1.484358 -0.159589 7.317823 -2.484822 -22.735399 0.000000 0.000000 0.000000 0.640829 -32.103981 11.915476 28.272967 -67.591709 -20.597477 45.712513 -20.485870 -7.132549 0.000000 0.000000 0.000000 11.684365 19.567200 7.384753 32.147157 46.914382 8.924987 -54.665679 51.814610 -25.745752 0.000000 0.000000 0.000000 
0.056590 0.944008 0.040504 -5.050088 -14.927179 13.434187 9.110560 0.336604 -19.831428 -5.327838 1.444267 14.266674 9.463422 18.232906 13.185502 0.000000 0.000000 0.000000 2.321980 4.551828 -29.674281 -3.628325 2.096957 17.368425 4.850496 0.810058 14.447959 0.000000 0.000000 0.000000 2.788224 -0.836864 15.215891 1.685899 -0.686947 -4.466906 -8.279589 1.292987 0.593304 6.491775 -2.131944 -22.936523 0.000000 0.000000 0.000000 6.670907 -32.430210 10.469093 46.228272 -65.606750 -30.589846 47.669334 -4.729767 -1.237537 0.000000 0.000000 0.000000 11.173622 19.568979 7.267017 31.708097 49.604101 9.395327 -60.638529 49.486435 -27.666244 0.000000 0.000000 0.000000 
0.056364 0.944266 0.040385 -5.385620 -15.187179 13.667998 9.533324 0.438345 -19.849030 -5.478803 1.490511 14.128436 9.597150 18.400955 13.295314 0.000000 0.000000 0.000000 2.738295 4.742236 -30.063710 -3.723854 2.174426 17.712573 4.964847 0.805097 14.741635 0.000000 0.000000 0.000000 2.315719 -0.754294 15.490626 2.230751 -0.899813 -4.813707 -7.427542 0.768188 0.130552 5.261091 -1.637968 -22.517965 0.000000 0.000000 0.000000 9.526765 -32.658614 9.848558 55.393614 -63.325064 -34.401384 46.461912 5.900851 2.875972 0.000000 0.000000 0.000000 10.958807 19.634457 7.113165 34.794719 51.570298 11.271132 -62.721478 49.754571 -29.240672 0.000000 0.000000 0.000000 
0.056110 0.941690 0.039783 -5.751839 -15.810204 13.225804 10.258908 0.659692 -20.180779 -3.538085 1.071084 15.669226 5.769443 12.191276 14.229048 0.000000 0.000000 0.000000 3.547949 4.995051 -30.207246 -3.906294 2.430786 19.049533 4.432825 0.203194 13.882941 0.000000 0.000000 0.000000 2.203647 -0.725642 16.256326 2.709381 -1.088466 -5.331737 -7.428609 1.281460 0.592914 4.690786 -1.348749 -22.660523 0.000000 0.000000 0.000000 11.019332 -33.350450 9.615430 57.428015 -62.422658 -34.988614 42.436786 11.224661 4.380108 0.000000 0.000000 0.000000 11.110476 19.889223 7.272052 35.878075 52.649644 12.064549 -60.682738 47.537455 -26.610373 0.000000 0.000000 0.000000 
0.056115 0.934602 0.038205 -5.383523 -16.029480 12.546127 10.370434 0.765524 -20.996661 -2.966270 1.022047 17.474579 3.797790 9.105958 14.735273 0.000000 0.000000 0.000000 3.041500 5.223502 -31.592674 -3.504087 2.770398 22.075607 3.914035 -0.214841 12.987605 0.000000 0.000000 0.000000 2.446871 -0.770428 17.502804 1.838173 -0.760922 -4.265410 -6.872406 1.479527 -0.213576 4.728445 -1.221320 -23.652350 0.000000 0.000000 0.000000 8.259239 -33.853888 10.568718 53.709635 -64.640831 -34.519523 39.671987 10.601142 3.839779 0.000000 0.000000 0.000000 10.105779 20.114770 7.344006 39.576492 54.430539 14.459835 -55.057357 45.697142 -22.650546 0.000000 0.000000 0.000000 
0.056401 0.925417 0.035924 -5.087416 -15.663783 11.950457 10.624853 0.911487 -22.416523 -3.705112 1.459377 20.669213 3.813362 9.011658 12.308921 0.000000 0.000000 0.000000 2.348846 5.466785 -33.446846 -2.708081 2.974910 25.240144 3.219041 -1.452770 12.984435 0.000000 0.000000 0.000000 3.026572 -0.900948 18.458585 1.379063 -0.577160 -3.937360 -6.898313 1.953591 0.456238 4.936594 -1.158256 -24.737921 0.000000 0.000000 0.000000 0.589955 -33.299471 12.482136 41.465501 -69.701397 -30.481051 39.127016 4.081172 1.736029 0.000000 0.000000 0.000000 10.766680 21.197883 8.030027 41.468985 55.094804 15.660327 -47.050348 43.141110 -17.454031 0.000000 0.000000 0.000000 
0.056388 0.918671 0.034230 -4.782937 -15.176496 11.583112 10.567755 0.921744 -23.221413 -3.941252 1.635379 22.352523 3.801887 8.879000 10.265471 0.000000 0.000000 0.000000 1.510358 5.413860 -34.335646 -1.644808 2.859667 27.138656 2.404360 -2.163123 11.593375 0.000000 0.000000 0.000000 3.229230 -0.963876 19.213592 1.169524 -0.483130 -2.481183 -7.309245 3.373187 0.030810 6.919442 -1.789203 -25.453410 0.000000 0.000000 0.000000 -7.065458 -32.729273 14.089220 11.710168 -71.201521 -11.695171 37.523723 -5.643781 -1.231418 0.000000 0.000000 0.000000 11.689375 20.854633 8.343905 44.825846 55.094413 17.554431 -38.763066 39.826574 -12.418084 0.000000 0.000000 0.000000 
0.056137 0.917880 0.033726 -4.663585 -14.067303 11.428197 10.563528 0.820858 -23.163015 -3.939563 1.518470 21.988100 3.397412 8.230061 9.592410 0.000000 0.000000 0.000000 1.485577 5.264407 -34.168553 -1.587134 2.765887 27.197966 1.615774 -3.476166 11.319039 0.000000 0.000000 0.000000 3.488658 -1.071310 20.118057 0.767629 -0.308331 -2.192944 -7.180831 4.115113 0.870484 8.177302 -2.213035 -25.937935 0.000000 0.000000 0.000000 -12.343742 -31.578383 14.655910 -11.276628 -67.291546 2.809898 32.976570 -12.660750 -2.872039 0.000000 0.000000 0.000000 13.379052 20.913524 8.842317 45.922258 53.571977 17.420586 -30.070766 36.568366 -8.188736 0.000000 0.000000 0.000000 
0.055594 0.919531 0.033836 -4.462944 -13.032591 11.746585 10.689530 0.731348 -22.887523 -4.344932 1.459428 20.353754 2.957963 7.578456 9.663246 0.000000 0.000000 0.000000 1.257586 5.022630 -33.769368 -1.522836 2.529021 26.130924 1.109370 -4.255104 11.066977 0.000000 0.000000 0.000000 3.259730 -1.071915 20.187772 0.925844 -0.370779 -1.984320 -7.584847 5.523086 1.269235 10.166268 -2.881987 -26.377124 0.000000 0.000000 0.000000 -15.431936 -30.277924 14.191307 -24.171158 -62.561737 9.207102 27.595368 -16.825316 -3.234014 0.000000 0.000000 0.000000 14.973422 20.392942 9.289708 46.610105 52.665455 17.380232 -25.883413 33.466010 -5.973607 0.000000 0.000000 0.000000 
0.055286 0.921706 0.033848 -4.326609 -11.910565 12.216391 10.561264 0.591067 -22.757295 -4.202512 1.232647 18.660948 2.485539 6.904543 9.919614 0.000000 0.000000 0.000000 0.929841 4.816689 -33.672849 -1.346811 2.275745 25.146635 0.823530 -4.912534 11.517604 0.000000 0.000000 0.000000 3.112795 -1.094672 20.317124 0.833595 -0.326548 -1.905012 -7.547985 6.597324 1.591879 11.504918 -3.175906 -27.371526 0.000000 0.000000 0.000000 -15.465822 -29.660111 13.435518 -32.019630 -59.464416 12.369288 24.389291 -18.788590 -3.181137 0.000000 0.000000 0.000000 16.059455 20.296702 9.848750 46.114102 53.372807 17.503479 -25.295738 30.046637 -4.985516 0.000000 0.000000 0.000000 
